<svg width="49" height="49" viewBox="0 0 49 49" fill="none" xmlns="http://www.w3.org/2000/svg">
<path d="M49 15.791C49 13.5988 48.3065 11.5154 46.9943 9.76658L40.0996 0.574219C39.8286 0.212715 39.4031 0 38.9512 0C38.4992 0 38.0738 0.212715 37.8027 0.574219L30.908 9.7662C29.5958 11.5154 28.9023 13.5988 28.9023 15.791C28.9023 17.4071 29.2863 18.935 29.967 20.2891C28.2534 20.2891 2.98437 20.2891 1.43555 20.2891C0.642632 20.2891 0 20.9317 0 21.7246V47.5645C0 48.3574 0.642632 49 1.43555 49H41.6309C42.4238 49 43.0664 48.3574 43.0664 47.5645C43.0664 45.0261 43.0664 28.7199 43.0664 24.958C46.5611 23.383 49 19.8666 49 15.791ZM33.2049 11.4892L38.9512 3.82812L44.6975 11.4892C45.6339 12.7375 46.1289 14.225 46.1289 15.791C46.1289 17.4034 45.5943 18.8931 44.6934 20.0928C44.6922 18.8416 44.2967 17.6539 43.5498 16.6583L40.0996 12.0586C39.8286 11.6971 39.4031 11.4844 38.9512 11.4844C38.4992 11.4844 38.0738 11.6971 37.8027 12.0586L34.3544 16.6561C33.606 17.6527 33.2101 18.8412 33.209 20.0928C32.308 18.8931 31.7734 17.4034 31.7734 15.791C31.7734 14.225 32.2684 12.7375 33.2049 11.4892ZM36.0801 20.0977C36.0801 19.4711 36.2775 18.8771 36.6509 18.3795L38.9512 15.3125L41.2533 18.3814C41.6253 18.8774 41.8223 19.4711 41.8223 20.0977C41.8223 21.6809 40.5344 22.9688 38.9512 22.9688C37.368 22.9688 36.0801 21.6809 36.0801 20.0977ZM40.1953 31.7734V37.5156H34.4531V31.7734H40.1953ZM31.582 37.5156C28.342 37.5156 20.5496 37.5156 11.4844 37.5156V31.7734H31.582V37.5156ZM2.87109 37.5156V31.7734H8.61328V37.5156H2.87109ZM25.8398 28.9023H17.2266V23.1602H25.8398V28.9023ZM2.87109 23.1602H14.3555V28.9023C12.2724 28.9023 6.52239 28.9023 2.87109 28.9023V23.1602ZM2.87109 40.3867H14.3555V46.1289H2.87109V40.3867ZM17.2266 40.3867H25.8398V46.1289H17.2266V40.3867ZM40.1953 46.1289H28.7109V40.3867H40.1953V46.1289ZM40.1953 28.9023C36.5377 28.9023 30.7906 28.9023 28.7109 28.9023V23.1602H32.1271C33.9208 24.8223 36.319 25.8398 38.9512 25.8398C39.3725 25.8398 39.7875 25.8133 40.1953 25.7628V28.9023Z" fill="#2185D0"/>
</svg>
